<svg width="180" height="40" viewBox="0 0 180 40" fill="none" xmlns="http://www.w3.org/2000/svg">
<rect width="40" height="40" rx="8" fill="#4CA6A8"/>
<circle cx="20" cy="20" r="8" fill="white"/>
<g clip-path="url(#clip0_31_1036)">
<path d="M179.457 16.7966V18.3307H174.094V16.7966H179.457ZM175.532 14.4443H177.443V23.732C177.443 24.1027 177.499 24.3818 177.609 24.5693C177.72 24.7526 177.863 24.8783 178.038 24.9465C178.217 25.0104 178.411 25.0423 178.619 25.0423C178.773 25.0423 178.907 25.0317 179.022 25.0104C179.137 24.9891 179.227 24.972 179.29 24.9593L179.636 26.5381C179.525 26.5807 179.367 26.6233 179.163 26.6659C178.958 26.7128 178.702 26.7384 178.396 26.7426C177.893 26.7512 177.424 26.6617 176.989 26.4742C176.555 26.2867 176.203 25.9969 175.935 25.6048C175.666 25.2128 175.532 24.7206 175.532 24.1283V14.4443Z" fill="black"/>
<path d="M165.958 20.7848V26.6143H164.047V13.5234H165.933V18.3942H166.054C166.284 17.8658 166.636 17.446 167.109 17.1349C167.582 16.8239 168.2 16.6683 168.962 16.6683C169.636 16.6683 170.224 16.8068 170.727 17.0838C171.234 17.3608 171.626 17.7741 171.903 18.3239C172.184 18.8693 172.325 19.5511 172.325 20.3693V26.6143H170.413V20.5994C170.413 19.8793 170.228 19.321 169.857 18.9247C169.487 18.5241 168.971 18.3239 168.31 18.3239C167.859 18.3239 167.454 18.4197 167.096 18.6115C166.742 18.8033 166.463 19.0845 166.259 19.4553C166.058 19.8217 165.958 20.2649 165.958 20.7848Z" fill="black"/>
<path d="M157.053 30.5008C156.273 30.5008 155.602 30.3986 155.039 30.194C154.481 29.9895 154.025 29.7189 153.671 29.3822C153.317 29.0456 153.053 28.677 152.879 28.2764L154.521 27.5989C154.636 27.7864 154.79 27.9845 154.982 28.1933C155.178 28.4064 155.442 28.5875 155.774 28.7366C156.111 28.8858 156.543 28.9604 157.072 28.9604C157.796 28.9604 158.395 28.7835 158.868 28.4298C159.341 28.0804 159.577 27.5222 159.577 26.7551V24.8247H159.456C159.341 25.0335 159.175 25.2658 158.957 25.5214C158.744 25.7771 158.45 25.9987 158.075 26.1862C157.7 26.3737 157.212 26.4675 156.612 26.4675C155.836 26.4675 155.137 26.2864 154.515 25.9241C153.897 25.5577 153.407 25.0186 153.045 24.307C152.687 23.591 152.508 22.7111 152.508 21.667C152.508 20.623 152.685 19.7281 153.038 18.9824C153.396 18.2366 153.886 17.6656 154.509 17.2693C155.131 16.8687 155.836 16.6685 156.624 16.6685C157.234 16.6685 157.726 16.7707 158.101 16.9753C158.476 17.1756 158.768 17.4099 158.977 17.6784C159.19 17.9469 159.354 18.1834 159.469 18.3879H159.609V16.7963H161.482V26.8318C161.482 27.6756 161.286 28.368 160.894 28.9092C160.502 29.4504 159.972 29.851 159.303 30.1109C158.638 30.3709 157.888 30.5008 157.053 30.5008ZM157.033 24.8822C157.583 24.8822 158.048 24.7544 158.427 24.4987C158.81 24.2388 159.1 23.868 159.296 23.3865C159.496 22.9007 159.597 22.319 159.597 21.6415C159.597 20.981 159.499 20.3993 159.303 19.8964C159.107 19.3936 158.819 19.0016 158.44 18.7203C158.06 18.4348 157.592 18.292 157.033 18.292C156.458 18.292 155.979 18.4412 155.595 18.7395C155.212 19.0335 154.922 19.4341 154.726 19.9412C154.534 20.4483 154.438 21.015 154.438 21.6415C154.438 22.2849 154.536 22.8496 154.732 23.3354C154.928 23.8212 155.218 24.2004 155.602 24.4731C155.989 24.7459 156.467 24.8822 157.033 24.8822Z" fill="black"/>
<path d="M148.454 26.6146V16.7964H150.365V26.6146H148.454ZM149.419 15.2815C149.087 15.2815 148.801 15.1707 148.562 14.9491C148.328 14.7232 148.211 14.4548 148.211 14.1437C148.211 13.8283 148.328 13.5599 148.562 13.3383C148.801 13.1124 149.087 12.9995 149.419 12.9995C149.751 12.9995 150.035 13.1124 150.269 13.3383C150.508 13.5599 150.627 13.8283 150.627 14.1437C150.627 14.4548 150.508 14.7232 150.269 14.9491C150.035 15.1707 149.751 15.2815 149.419 15.2815Z" fill="black"/>
<path d="M145.884 13.5234V26.6143H143.973V13.5234H145.884Z" fill="black"/>
<path d="M141.646 16.7966V18.3307H136.283V16.7966H141.646ZM137.721 14.4443H139.633V23.732C139.633 24.1027 139.688 24.3818 139.799 24.5693C139.91 24.7526 140.052 24.8783 140.227 24.9465C140.406 25.0104 140.6 25.0423 140.809 25.0423C140.962 25.0423 141.096 25.0317 141.211 25.0104C141.327 24.9891 141.416 24.972 141.48 24.9593L141.825 26.5381C141.714 26.5807 141.557 26.6233 141.352 26.6659C141.148 26.7128 140.892 26.7384 140.585 26.7426C140.082 26.7512 139.613 26.6617 139.179 26.4742C138.744 26.2867 138.393 25.9969 138.124 25.6048C137.856 25.2128 137.721 24.7206 137.721 24.1283V14.4443Z" fill="black"/>
<path d="M130.354 26.8126C129.434 26.8126 128.63 26.6017 127.944 26.1798C127.258 25.7579 126.725 25.1677 126.346 24.4092C125.967 23.6507 125.777 22.7643 125.777 21.7501C125.777 20.7317 125.967 19.841 126.346 19.0783C126.725 18.3155 127.258 17.7231 127.944 17.3013C128.63 16.8794 129.434 16.6685 130.354 16.6685C131.275 16.6685 132.078 16.8794 132.764 17.3013C133.45 17.7231 133.983 18.3155 134.362 19.0783C134.741 19.841 134.931 20.7317 134.931 21.7501C134.931 22.7643 134.741 23.6507 134.362 24.4092C133.983 25.1677 133.45 25.7579 132.764 26.1798C132.078 26.6017 131.275 26.8126 130.354 26.8126ZM130.36 25.2082C130.957 25.2082 131.451 25.0506 131.843 24.7352C132.235 24.4199 132.525 24.0001 132.713 23.476C132.904 22.9518 133 22.3744 133 21.7437C133 21.1173 132.904 20.542 132.713 20.0179C132.525 19.4895 132.235 19.0655 131.843 18.7459C131.451 18.4263 130.957 18.2665 130.36 18.2665C129.76 18.2665 129.261 18.4263 128.865 18.7459C128.473 19.0655 128.181 19.4895 127.989 20.0179C127.801 20.542 127.708 21.1173 127.708 21.7437C127.708 22.3744 127.801 22.9518 127.989 23.476C128.181 24.0001 128.473 24.4199 128.865 24.7352C129.261 25.0506 129.76 25.2082 130.36 25.2082Z" fill="black"/>
<path d="M115.109 30.2963V16.7963H116.976V18.3879H117.136C117.246 18.1834 117.406 17.9469 117.615 17.6784C117.824 17.4099 118.114 17.1756 118.484 16.9753C118.855 16.7707 119.345 16.6685 119.955 16.6685C120.747 16.6685 121.455 16.8687 122.077 17.2693C122.699 17.6699 123.187 18.2473 123.54 19.0016C123.898 19.7558 124.077 20.6635 124.077 21.7246C124.077 22.7856 123.901 23.6954 123.547 24.454C123.193 25.2082 122.707 25.7899 122.089 26.199C121.472 26.6038 120.766 26.8062 119.974 26.8062C119.377 26.8062 118.889 26.7061 118.51 26.5058C118.135 26.3055 117.841 26.0712 117.628 25.8027C117.415 25.5342 117.251 25.2956 117.136 25.0868H117.021V30.2963H115.109ZM116.982 21.7054C116.982 22.3957 117.082 23.0008 117.283 23.5207C117.483 24.0406 117.773 24.4476 118.152 24.7416C118.531 25.0314 118.996 25.1763 119.545 25.1763C120.116 25.1763 120.594 25.025 120.977 24.7224C121.361 24.4156 121.651 24.0001 121.847 23.476C122.047 22.9518 122.147 22.3616 122.147 21.7054C122.147 21.0577 122.049 20.476 121.853 19.9604C121.661 19.4447 121.371 19.0378 120.984 18.7395C120.6 18.4412 120.121 18.292 119.545 18.292C118.991 18.292 118.523 18.4348 118.139 18.7203C117.76 19.0058 117.472 19.4043 117.276 19.9156C117.08 20.427 116.982 21.0236 116.982 21.7054Z" fill="black"/>
<path d="M110.818 16.9626C110.75 16.3575 110.468 15.8888 109.974 15.5564C109.48 15.2197 108.858 15.0514 108.108 15.0514C107.571 15.0514 107.106 15.1366 106.714 15.3071C106.322 15.4733 106.017 15.7034 105.8 15.9974C105.587 16.2872 105.48 16.6175 105.48 16.9882C105.48 17.2993 105.553 17.5677 105.698 17.7936C105.847 18.0194 106.041 18.2091 106.279 18.3625C106.522 18.5116 106.782 18.6373 107.059 18.7396C107.336 18.8376 107.603 18.9186 107.858 18.9825L109.137 19.3149C109.554 19.4172 109.983 19.5557 110.422 19.7304C110.86 19.9051 111.267 20.1352 111.642 20.4207C112.017 20.7062 112.32 21.0599 112.55 21.4818C112.784 21.9037 112.902 22.4086 112.902 22.9967C112.902 23.7382 112.71 24.3966 112.326 24.9719C111.947 25.5471 111.395 26.001 110.671 26.3334C109.951 26.6657 109.079 26.8319 108.056 26.8319C107.076 26.8319 106.228 26.6764 105.512 26.3653C104.797 26.0542 104.236 25.6132 103.831 25.0422C103.426 24.4669 103.203 23.7851 103.16 22.9967H105.142C105.18 23.4697 105.333 23.8639 105.602 24.1792C105.875 24.4903 106.222 24.7226 106.644 24.876C107.07 25.0251 107.537 25.0997 108.044 25.0997C108.602 25.0997 109.098 25.0123 109.533 24.8376C109.972 24.6586 110.317 24.4115 110.569 24.0961C110.82 23.7765 110.946 23.4037 110.946 22.9775C110.946 22.5898 110.835 22.2723 110.613 22.0251C110.396 21.778 110.1 21.5734 109.725 21.4115C109.354 21.2496 108.934 21.1068 108.466 20.9832L106.919 20.5613C105.87 20.2758 105.039 19.8561 104.426 19.3021C103.816 18.7481 103.512 18.0152 103.512 17.1032C103.512 16.349 103.716 15.6906 104.125 15.1281C104.534 14.5656 105.088 14.1288 105.787 13.8177C106.486 13.5024 107.275 13.3447 108.152 13.3447C109.039 13.3447 109.821 13.5003 110.498 13.8113C111.18 14.1224 111.717 14.5507 112.109 15.0961C112.501 15.6373 112.706 16.2595 112.723 16.9626H110.818Z" fill="black"/>
<path d="M95.9318 26.8061C95.1392 26.8061 94.4318 26.6037 93.8097 26.1989C93.1918 25.7898 92.706 25.2081 92.3523 24.4538C92.0028 23.6953 91.8281 22.7855 91.8281 21.7244C91.8281 20.6634 92.005 19.7557 92.3587 19.0014C92.7166 18.2472 93.2067 17.6697 93.8288 17.2692C94.451 16.8686 95.1563 16.6683 95.9446 16.6683C96.554 16.6683 97.044 16.7706 97.4148 16.9751C97.7898 17.1754 98.0795 17.4098 98.2841 17.6783C98.4929 17.9467 98.6548 18.1832 98.7699 18.3878H98.8849V13.5234H100.796V26.6143H98.9297V25.0866H98.7699C98.6548 25.2955 98.4886 25.5341 98.2713 25.8026C98.0582 26.071 97.7642 26.3054 97.3892 26.5057C97.0142 26.706 96.5284 26.8061 95.9318 26.8061ZM96.3537 25.1761C96.9034 25.1761 97.3679 25.0313 97.7472 24.7415C98.1307 24.4474 98.4205 24.0405 98.6165 23.5206C98.8168 23.0007 98.9169 22.3956 98.9169 21.7053C98.9169 21.0234 98.8189 20.4268 98.6229 19.9155C98.4268 19.4041 98.1392 19.0057 97.7599 18.7202C97.3807 18.4347 96.9119 18.2919 96.3537 18.2919C95.7784 18.2919 95.299 18.4411 94.9155 18.7393C94.532 19.0376 94.2422 19.4446 94.0462 19.9602C93.8544 20.4759 93.7585 21.0575 93.7585 21.7053C93.7585 22.3615 93.8565 22.9517 94.0526 23.4759C94.2486 24 94.5384 24.4155 94.9219 24.7223C95.3097 25.0249 95.7869 25.1761 96.3537 25.1761Z" fill="black"/>
<path d="M83.4112 20.7849V26.6145H81.5V16.7963H83.3345V18.3943H83.456C83.6818 17.8744 84.0355 17.4568 84.517 17.1415C85.0028 16.8261 85.6143 16.6685 86.3516 16.6685C87.0206 16.6685 87.6065 16.8091 88.1094 17.0903C88.6122 17.3673 89.0021 17.7807 89.2791 18.3304C89.5561 18.8801 89.6946 19.5598 89.6946 20.3695V26.6145H87.7834V20.5996C87.7834 19.8879 87.598 19.3318 87.2273 18.9312C86.8565 18.5264 86.3473 18.324 85.6996 18.324C85.2564 18.324 84.8622 18.4199 84.517 18.6116C84.1761 18.8034 83.9055 19.0847 83.7053 19.4554C83.5092 19.8219 83.4112 20.265 83.4112 20.7849Z" fill="black"/>
<path d="M77.0144 22.5428V16.7964H78.932V26.6146H77.0527V24.9143H76.9505C76.7246 25.4384 76.3624 25.8752 75.8638 26.2247C75.3695 26.5698 74.7537 26.7424 74.0165 26.7424C73.3858 26.7424 72.8276 26.6039 72.3418 26.3269C71.8603 26.0457 71.481 25.6302 71.204 25.0805C70.9313 24.5308 70.7949 23.8511 70.7949 23.0414V16.7964H72.7061V22.8113C72.7061 23.4803 72.8915 24.013 73.2623 24.4093C73.633 24.8056 74.1145 25.0038 74.7069 25.0038C75.0648 25.0038 75.4206 24.9143 75.7743 24.7353C76.1323 24.5563 76.4284 24.2857 76.6628 23.9235C76.9015 23.5613 77.0186 23.1011 77.0144 22.5428Z" fill="black"/>
<path d="M64.0845 26.8126C63.1641 26.8126 62.3608 26.6017 61.6747 26.1798C60.9886 25.7579 60.456 25.1677 60.0767 24.4092C59.6974 23.6507 59.5078 22.7643 59.5078 21.7501C59.5078 20.7317 59.6974 19.841 60.0767 19.0783C60.456 18.3155 60.9886 17.7231 61.6747 17.3013C62.3608 16.8794 63.1641 16.6685 64.0845 16.6685C65.005 16.6685 65.8082 16.8794 66.4943 17.3013C67.1804 17.7231 67.7131 18.3155 68.0923 19.0783C68.4716 19.841 68.6612 20.7317 68.6612 21.7501C68.6612 22.7643 68.4716 23.6507 68.0923 24.4092C67.7131 25.1677 67.1804 25.7579 66.4943 26.1798C65.8082 26.6017 65.005 26.8126 64.0845 26.8126ZM64.0909 25.2082C64.6875 25.2082 65.1818 25.0506 65.5739 24.7352C65.9659 24.4199 66.2557 24.0001 66.4432 23.476C66.6349 22.9518 66.7308 22.3744 66.7308 21.7437C66.7308 21.1173 66.6349 20.542 66.4432 20.0179C66.2557 19.4895 65.9659 19.0655 65.5739 18.7459C65.1818 18.4263 64.6875 18.2665 64.0909 18.2665C63.4901 18.2665 62.9915 18.4263 62.5952 18.7459C62.2031 19.0655 61.9112 19.4895 61.7195 20.0179C61.532 20.542 61.4382 21.1173 61.4382 21.7437C61.4382 22.3744 61.532 22.9518 61.7195 23.476C61.9112 24.0001 62.2031 24.4199 62.5952 24.7352C62.9915 25.0506 63.4901 25.2082 64.0909 25.2082Z" fill="black"/>
<path d="M55.6577 16.9626C55.5895 16.3575 55.3082 15.8888 54.8139 15.5564C54.3196 15.2197 53.6974 15.0514 52.9474 15.0514C52.4105 15.0514 51.946 15.1366 51.554 15.3071C51.1619 15.4733 50.8572 15.7034 50.6399 15.9974C50.4268 16.2872 50.3203 16.6175 50.3203 16.9882C50.3203 17.2993 50.3928 17.5677 50.5376 17.7936C50.6868 18.0194 50.8807 18.2091 51.1193 18.3625C51.3622 18.5116 51.6222 18.6373 51.8991 18.7396C52.1761 18.8376 52.4425 18.9186 52.6982 18.9825L53.9766 19.3149C54.3942 19.4172 54.8224 19.5557 55.2614 19.7304C55.7003 19.9051 56.1072 20.1352 56.4822 20.4207C56.8572 20.7062 57.1598 21.0599 57.3899 21.4818C57.6243 21.9037 57.7415 22.4086 57.7415 22.9967C57.7415 23.7382 57.5497 24.3966 57.1662 24.9719C56.7869 25.5471 56.2351 26.001 55.5107 26.3334C54.7905 26.6657 53.919 26.8319 52.8963 26.8319C51.9162 26.8319 51.0682 26.6764 50.3523 26.3653C49.6364 26.0542 49.076 25.6132 48.6712 25.0422C48.2663 24.4669 48.0426 23.7851 48 22.9967H49.9815C50.0199 23.4697 50.1733 23.8639 50.4418 24.1792C50.7145 24.4903 51.0618 24.7226 51.4837 24.876C51.9098 25.0251 52.3764 25.0997 52.8835 25.0997C53.4418 25.0997 53.9382 25.0123 54.3729 24.8376C54.8118 24.6586 55.157 24.4115 55.4084 24.0961C55.6598 23.7765 55.7855 23.4037 55.7855 22.9775C55.7855 22.5898 55.6747 22.2723 55.4531 22.0251C55.2358 21.778 54.9396 21.5734 54.5646 21.4115C54.1939 21.2496 53.7741 21.1068 53.3054 20.9832L51.7585 20.5613C50.7102 20.2758 49.8793 19.8561 49.2656 19.3021C48.6562 18.7481 48.3516 18.0152 48.3516 17.1032C48.3516 16.349 48.5561 15.6906 48.9652 15.1281C49.3743 14.5656 49.9283 14.1288 50.6271 13.8177C51.326 13.5024 52.1143 13.3447 52.9922 13.3447C53.8786 13.3447 54.6605 13.5003 55.3381 13.8113C56.0199 14.1224 56.5568 14.5507 56.9489 15.0961C57.3409 15.6373 57.5455 16.2595 57.5625 16.9626H55.6577Z" fill="black"/>
</g>
<defs>
<clipPath id="clip0_31_1036">
<rect width="131.636" height="21.0014" fill="white" transform="translate(48 9.49951)"/>
</clipPath>
</defs>
</svg>
